<svg xmlns="http://www.w3.org/2000/svg" viewBox="0 0 512 512">
  <defs>
    <linearGradient id="bg" x1="0%" y1="0%" x2="100%" y2="100%">
      <stop offset="0%" style="stop-color:#00d4ff"/>
      <stop offset="100%" style="stop-color:#7c3aed"/>
    </linearGradient>
  </defs>
  
  <!-- Background -->
  <rect width="512" height="512" rx="80" fill="url(#bg)"/>
  
  <!-- Thermometer body -->
  <path d="M256 80 C220 80 200 100 200 140 L200 320 C165 340 145 375 145 420 C145 480 195 530 256 530 C317 530 367 480 367 420 C367 375 347 340 312 320 L312 140 C312 100 292 80 256 80 Z" fill="white" opacity="0.95"/>
  
  <!-- Temperature level -->
  <path d="M256 200 C240 200 230 210 230 230 L230 340 C205 355 190 385 190 420 C190 455 220 485 256 485 C292 485 322 455 322 420 C322 385 307 355 282 340 L282 230 C282 210 272 200 256 200 Z" fill="#ff6b6b"/>
  
  <!-- Water droplet -->
  <path d="M400 260 C400 260 360 320 360 360 C360 395 380 420 400 420 C420 420 440 395 440 360 C440 320 400 260 400 260 Z" fill="white" opacity="0.9"/>
  
  <!-- Droplet shine -->
  <ellipse cx="375" cy="350" rx="8" ry="12" fill="white" opacity="0.5"/>
</svg>
